<svg xmlns="http://www.w3.org/2000/svg" width="125.419" height="62.418"><g id="Group_2" data-name="Group 2" transform="translate(-501.104 -376.1)" fill="#1a1818"><g id="Group_1" data-name="Group 1" transform="translate(585.578 376.352)"><path id="Path_2" data-name="Path 2" d="M624.59 389.847a4.691 4.691 0 0 1-3.366-1.369c-1.24-1.239-1.24-2.534-1.24-5.327s0-4.088 1.24-5.327a4.691 4.691 0 0 1 3.366-1.369 4.443 4.443 0 0 1 4.569 3.921h-1.443a3.109 3.109 0 0 0-3.126-2.663 3.167 3.167 0 0 0-2.275.924c-.833.851-.925 1.757-.925 4.514s.092 3.662.925 4.513a3.226 3.226 0 0 0 5.437-1.738h1.406a4.443 4.443 0 0 1-4.568 3.921z" transform="translate(-619.984 -376.455)"/><path id="Path_3" data-name="Path 3" d="M646.6 389.781l-1.054-2.978h-5.754l-1.054 2.978h-1.5l4.847-13.171h1.184l4.828 13.171zm-3.9-11.154l-2.478 6.955h4.919z" transform="translate(-624.978 -376.5)"/><path id="Path_4" data-name="Path 4" d="M658.113 389.781V376.61h1.406v11.913h6.733v1.258z" transform="translate(-631.019 -376.5)"/><path id="Path_5" data-name="Path 5" d="M675.629 389.781V376.61h1.4v13.171z" transform="translate(-636.089 -376.5)"/><path id="Path_6" data-name="Path 6" d="M622.092 412.063v4.846h5.771v1.258h-5.771v5.808h-1.405V410.8h8.176v1.258z" transform="translate(-620.187 -386.397)"/><path id="Path_7" data-name="Path 7" d="M645.135 422.671a4.824 4.824 0 0 1-6.733 0c-1.239-1.239-1.239-2.534-1.239-5.327s0-4.087 1.239-5.327a4.824 4.824 0 0 1 6.733 0c1.239 1.239 1.239 2.534 1.239 5.327s0 4.088-1.239 5.327zm-1.092-9.822a3.215 3.215 0 0 0-4.551 0c-.832.851-.924 1.739-.924 4.494s.092 3.645.924 4.5a3.215 3.215 0 0 0 4.551 0c.833-.851.924-1.739.924-4.5s-.091-3.643-.924-4.494z" transform="translate(-624.956 -386.351)"/><path id="Path_8" data-name="Path 8" d="M664.95 423.975l-3-5.845h-3.16v5.845h-1.4V410.8h5.049a3.562 3.562 0 0 1 3.9 3.662A3.416 3.416 0 0 1 663.47 418l3.127 5.975zm-2.65-11.912h-3.51v4.828h3.51a2.422 2.422 0 1 0 0-4.828z" transform="translate(-630.809 -386.397)"/><path id="Path_9" data-name="Path 9" d="M629.085 458.168l-6.993-10.562v10.562h-1.405V445h1.332l6.991 10.525V445h1.406v13.17z" transform="translate(-620.187 -396.293)"/><path id="Path_10" data-name="Path 10" d="M642.341 458.168V445h1.4v13.17z" transform="translate(-626.455 -396.293)"/><path id="Path_11" data-name="Path 11" d="M659.274 458.168l-1.054-2.978h-5.754l-1.055 2.978h-1.5L654.76 445h1.184l4.828 13.17zm-3.9-11.154l-2.479 6.955h4.92z" transform="translate(-628.646 -396.293)"/></g><path id="Path_12" data-name="Path 12" d="M532.313 428.32a21.011 21.011 0 1 1 9.994-39.489l-.039.007-2.211 11.249 5.4 1.153 10.034-14.828a31.209 31.209 0 1 0 0 41.793l-7.572-6.83a21.052 21.052 0 0 1-15.606 6.945z"/><path id="Rectangle_1" data-name="Rectangle 1" transform="translate(569.28 376.438)" d="M0 0h1.421v61.806H0z"/></g></svg>